<svg version="1" xmlns="http://www.w3.org/2000/svg" width="341.333" height="341.333" viewBox="0 0 256.000000 256.000000"><path d="M114.9 5.4c-.2.2-2.6.7-5.4 1-25 3.3-52.8 17.9-70.8 37.1-5 5.3-14.7 18.1-14.7 19.3 0 .6-.4 1.2-.9 1.4-1.2.4-9.5 18-11.9 25.3-4.3 12.7-5.7 22.3-5.7 38.5.1 21.3 2.8 33.9 11.5 52.5 7.5 16.3 17.6 29.4 32 41.6 5.5 4.7 22.1 15.9 23.6 15.9.4 0 3 1.1 5.8 2.4 14.9 6.9 29.6 10 47.6 10.1 12.2 0 25.3-1 27-2 .4-.2 2.1-.7 3.9-1 12.4-2.2 34.5-12.8 46.6-22.5 28.8-22.9 45.5-55.3 47.2-91.6 2.5-52.6-29.2-100.9-78.7-120.2-6-2.4-18.5-5.9-24-6.8-4.1-.6-32.6-1.5-33.1-1z"/></svg>